<mxfile host="Electron" modified="2023-11-15T23:46:15.433Z" agent="Mozilla/5.0 (Windows NT 10.0; Win64; x64) AppleWebKit/537.36 (KHTML, like Gecko) draw.io/22.0.3 Chrome/114.0.5735.289 Electron/25.8.4 Safari/537.36" etag="mQRZ_y4UDDnKhg_Md4Is" version="22.0.3" type="device">
  <diagram id="C5RBs43oDa-KdzZeNtuy" name="Page-1">
    <mxGraphModel dx="2690" dy="606" grid="1" gridSize="10" guides="1" tooltips="1" connect="1" arrows="1" fold="1" page="1" pageScale="1" pageWidth="827" pageHeight="1169" math="0" shadow="0">
      <root>
        <mxCell id="WIyWlLk6GJQsqaUBKTNV-0" />
        <mxCell id="WIyWlLk6GJQsqaUBKTNV-1" parent="WIyWlLk6GJQsqaUBKTNV-0" />
        <mxCell id="R0n0d4PvLA37cwk8qNkZ-2" style="edgeStyle=orthogonalEdgeStyle;rounded=0;orthogonalLoop=1;jettySize=auto;html=1;exitX=0.5;exitY=1;exitDx=0;exitDy=0;entryX=0.5;entryY=0;entryDx=0;entryDy=0;" edge="1" parent="WIyWlLk6GJQsqaUBKTNV-1" source="R0n0d4PvLA37cwk8qNkZ-0" target="R0n0d4PvLA37cwk8qNkZ-1">
          <mxGeometry relative="1" as="geometry" />
        </mxCell>
        <mxCell id="R0n0d4PvLA37cwk8qNkZ-0" value="start" style="ellipse;whiteSpace=wrap;html=1;" vertex="1" parent="WIyWlLk6GJQsqaUBKTNV-1">
          <mxGeometry x="354" y="60" width="120" height="80" as="geometry" />
        </mxCell>
        <mxCell id="R0n0d4PvLA37cwk8qNkZ-4" style="edgeStyle=orthogonalEdgeStyle;rounded=0;orthogonalLoop=1;jettySize=auto;html=1;exitX=0.5;exitY=1;exitDx=0;exitDy=0;entryX=0.5;entryY=0;entryDx=0;entryDy=0;" edge="1" parent="WIyWlLk6GJQsqaUBKTNV-1" source="R0n0d4PvLA37cwk8qNkZ-1" target="R0n0d4PvLA37cwk8qNkZ-3">
          <mxGeometry relative="1" as="geometry" />
        </mxCell>
        <mxCell id="R0n0d4PvLA37cwk8qNkZ-1" value="n" style="shape=parallelogram;perimeter=parallelogramPerimeter;whiteSpace=wrap;html=1;fixedSize=1;" vertex="1" parent="WIyWlLk6GJQsqaUBKTNV-1">
          <mxGeometry x="354" y="170" width="120" height="60" as="geometry" />
        </mxCell>
        <mxCell id="R0n0d4PvLA37cwk8qNkZ-7" style="edgeStyle=orthogonalEdgeStyle;rounded=0;orthogonalLoop=1;jettySize=auto;html=1;exitX=0.5;exitY=1;exitDx=0;exitDy=0;entryX=0.5;entryY=0;entryDx=0;entryDy=0;" edge="1" parent="WIyWlLk6GJQsqaUBKTNV-1" source="R0n0d4PvLA37cwk8qNkZ-3" target="R0n0d4PvLA37cwk8qNkZ-6">
          <mxGeometry relative="1" as="geometry" />
        </mxCell>
        <mxCell id="R0n0d4PvLA37cwk8qNkZ-3" value="addValue,addIndex" style="rounded=0;whiteSpace=wrap;html=1;" vertex="1" parent="WIyWlLk6GJQsqaUBKTNV-1">
          <mxGeometry x="354" y="260" width="120" height="60" as="geometry" />
        </mxCell>
        <mxCell id="R0n0d4PvLA37cwk8qNkZ-9" style="edgeStyle=orthogonalEdgeStyle;rounded=0;orthogonalLoop=1;jettySize=auto;html=1;exitX=0.5;exitY=1;exitDx=0;exitDy=0;entryX=0.5;entryY=0;entryDx=0;entryDy=0;" edge="1" parent="WIyWlLk6GJQsqaUBKTNV-1" source="R0n0d4PvLA37cwk8qNkZ-6" target="R0n0d4PvLA37cwk8qNkZ-8">
          <mxGeometry relative="1" as="geometry" />
        </mxCell>
        <mxCell id="R0n0d4PvLA37cwk8qNkZ-6" value="oldArr[n]&lt;br&gt;newArr[n+1]&lt;br&gt;a=0" style="rounded=0;whiteSpace=wrap;html=1;" vertex="1" parent="WIyWlLk6GJQsqaUBKTNV-1">
          <mxGeometry x="354" y="340" width="120" height="60" as="geometry" />
        </mxCell>
        <mxCell id="R0n0d4PvLA37cwk8qNkZ-10" style="edgeStyle=orthogonalEdgeStyle;rounded=0;orthogonalLoop=1;jettySize=auto;html=1;exitX=0.5;exitY=1;exitDx=0;exitDy=0;" edge="1" parent="WIyWlLk6GJQsqaUBKTNV-1" source="R0n0d4PvLA37cwk8qNkZ-8">
          <mxGeometry relative="1" as="geometry">
            <mxPoint x="414" y="560" as="targetPoint" />
          </mxGeometry>
        </mxCell>
        <mxCell id="R0n0d4PvLA37cwk8qNkZ-18" style="edgeStyle=orthogonalEdgeStyle;rounded=0;orthogonalLoop=1;jettySize=auto;html=1;exitX=0;exitY=0.5;exitDx=0;exitDy=0;" edge="1" parent="WIyWlLk6GJQsqaUBKTNV-1" source="R0n0d4PvLA37cwk8qNkZ-8">
          <mxGeometry relative="1" as="geometry">
            <mxPoint x="240" y="480" as="targetPoint" />
          </mxGeometry>
        </mxCell>
        <mxCell id="R0n0d4PvLA37cwk8qNkZ-8" value="a&amp;lt;sizeof(oldArr) / sizeof(int)?" style="rhombus;whiteSpace=wrap;html=1;" vertex="1" parent="WIyWlLk6GJQsqaUBKTNV-1">
          <mxGeometry x="316" y="440" width="196" height="80" as="geometry" />
        </mxCell>
        <mxCell id="R0n0d4PvLA37cwk8qNkZ-20" value="" style="edgeStyle=orthogonalEdgeStyle;rounded=0;orthogonalLoop=1;jettySize=auto;html=1;" edge="1" parent="WIyWlLk6GJQsqaUBKTNV-1" source="R0n0d4PvLA37cwk8qNkZ-11" target="R0n0d4PvLA37cwk8qNkZ-15">
          <mxGeometry relative="1" as="geometry" />
        </mxCell>
        <mxCell id="R0n0d4PvLA37cwk8qNkZ-11" value="oldArr[a]=" style="shape=parallelogram;perimeter=parallelogramPerimeter;whiteSpace=wrap;html=1;fixedSize=1;" vertex="1" parent="WIyWlLk6GJQsqaUBKTNV-1">
          <mxGeometry x="354" y="560" width="120" height="60" as="geometry" />
        </mxCell>
        <mxCell id="R0n0d4PvLA37cwk8qNkZ-14" style="edgeStyle=orthogonalEdgeStyle;rounded=0;orthogonalLoop=1;jettySize=auto;html=1;exitX=0.5;exitY=1;exitDx=0;exitDy=0;" edge="1" parent="WIyWlLk6GJQsqaUBKTNV-1" source="R0n0d4PvLA37cwk8qNkZ-12">
          <mxGeometry relative="1" as="geometry">
            <mxPoint x="400" y="730" as="targetPoint" />
          </mxGeometry>
        </mxCell>
        <mxCell id="R0n0d4PvLA37cwk8qNkZ-12" value="gia tri nhap ,oldArr[a]" style="shape=parallelogram;perimeter=parallelogramPerimeter;whiteSpace=wrap;html=1;fixedSize=1;" vertex="1" parent="WIyWlLk6GJQsqaUBKTNV-1">
          <mxGeometry x="340" y="640" width="120" height="60" as="geometry" />
        </mxCell>
        <mxCell id="R0n0d4PvLA37cwk8qNkZ-13" style="edgeStyle=orthogonalEdgeStyle;rounded=0;orthogonalLoop=1;jettySize=auto;html=1;exitX=0.5;exitY=1;exitDx=0;exitDy=0;entryX=0.617;entryY=0;entryDx=0;entryDy=0;entryPerimeter=0;" edge="1" parent="WIyWlLk6GJQsqaUBKTNV-1" source="R0n0d4PvLA37cwk8qNkZ-11" target="R0n0d4PvLA37cwk8qNkZ-12">
          <mxGeometry relative="1" as="geometry" />
        </mxCell>
        <mxCell id="R0n0d4PvLA37cwk8qNkZ-16" style="edgeStyle=orthogonalEdgeStyle;rounded=0;orthogonalLoop=1;jettySize=auto;html=1;exitX=1;exitY=0.5;exitDx=0;exitDy=0;entryX=1;entryY=0.5;entryDx=0;entryDy=0;" edge="1" parent="WIyWlLk6GJQsqaUBKTNV-1" source="R0n0d4PvLA37cwk8qNkZ-15" target="R0n0d4PvLA37cwk8qNkZ-8">
          <mxGeometry relative="1" as="geometry" />
        </mxCell>
        <mxCell id="R0n0d4PvLA37cwk8qNkZ-15" value="a++" style="rounded=0;whiteSpace=wrap;html=1;" vertex="1" parent="WIyWlLk6GJQsqaUBKTNV-1">
          <mxGeometry x="340" y="730" width="120" height="60" as="geometry" />
        </mxCell>
        <mxCell id="R0n0d4PvLA37cwk8qNkZ-17" value="true" style="text;html=1;align=center;verticalAlign=middle;resizable=0;points=[];autosize=1;strokeColor=none;fillColor=none;" vertex="1" parent="WIyWlLk6GJQsqaUBKTNV-1">
          <mxGeometry x="410" y="518" width="40" height="30" as="geometry" />
        </mxCell>
        <mxCell id="R0n0d4PvLA37cwk8qNkZ-19" value="false" style="text;html=1;align=center;verticalAlign=middle;resizable=0;points=[];autosize=1;strokeColor=none;fillColor=none;" vertex="1" parent="WIyWlLk6GJQsqaUBKTNV-1">
          <mxGeometry x="245" y="458" width="50" height="30" as="geometry" />
        </mxCell>
        <mxCell id="R0n0d4PvLA37cwk8qNkZ-28" style="edgeStyle=orthogonalEdgeStyle;rounded=0;orthogonalLoop=1;jettySize=auto;html=1;exitX=0;exitY=0.5;exitDx=0;exitDy=0;entryX=1;entryY=0.5;entryDx=0;entryDy=0;entryPerimeter=0;" edge="1" parent="WIyWlLk6GJQsqaUBKTNV-1">
          <mxGeometry relative="1" as="geometry">
            <mxPoint x="40" y="480" as="targetPoint" />
            <mxPoint x="140" y="480" as="sourcePoint" />
            <Array as="points">
              <mxPoint x="95" y="480" />
              <mxPoint x="95" y="481" />
            </Array>
          </mxGeometry>
        </mxCell>
        <mxCell id="R0n0d4PvLA37cwk8qNkZ-21" value="addValue,addIndex" style="shape=parallelogram;perimeter=parallelogramPerimeter;whiteSpace=wrap;html=1;fixedSize=1;" vertex="1" parent="WIyWlLk6GJQsqaUBKTNV-1">
          <mxGeometry x="130" y="450" width="120" height="60" as="geometry" />
        </mxCell>
        <mxCell id="R0n0d4PvLA37cwk8qNkZ-32" style="edgeStyle=orthogonalEdgeStyle;rounded=0;orthogonalLoop=1;jettySize=auto;html=1;exitX=0.5;exitY=1;exitDx=0;exitDy=0;" edge="1" parent="WIyWlLk6GJQsqaUBKTNV-1" source="R0n0d4PvLA37cwk8qNkZ-23" target="R0n0d4PvLA37cwk8qNkZ-31">
          <mxGeometry relative="1" as="geometry" />
        </mxCell>
        <mxCell id="R0n0d4PvLA37cwk8qNkZ-23" value="a&amp;lt;sizeof(newArr) / sizeof(int)?" style="rhombus;whiteSpace=wrap;html=1;" vertex="1" parent="WIyWlLk6GJQsqaUBKTNV-1">
          <mxGeometry x="-80" y="545" width="160" height="80" as="geometry" />
        </mxCell>
        <mxCell id="R0n0d4PvLA37cwk8qNkZ-29" style="edgeStyle=orthogonalEdgeStyle;rounded=0;orthogonalLoop=1;jettySize=auto;html=1;exitX=0.5;exitY=1;exitDx=0;exitDy=0;entryX=0.5;entryY=0;entryDx=0;entryDy=0;" edge="1" parent="WIyWlLk6GJQsqaUBKTNV-1" source="R0n0d4PvLA37cwk8qNkZ-27" target="R0n0d4PvLA37cwk8qNkZ-23">
          <mxGeometry relative="1" as="geometry" />
        </mxCell>
        <mxCell id="R0n0d4PvLA37cwk8qNkZ-46" style="edgeStyle=orthogonalEdgeStyle;rounded=0;orthogonalLoop=1;jettySize=auto;html=1;exitX=0;exitY=0.5;exitDx=0;exitDy=0;" edge="1" parent="WIyWlLk6GJQsqaUBKTNV-1" source="R0n0d4PvLA37cwk8qNkZ-27">
          <mxGeometry relative="1" as="geometry">
            <mxPoint x="-530" y="480" as="targetPoint" />
          </mxGeometry>
        </mxCell>
        <mxCell id="R0n0d4PvLA37cwk8qNkZ-27" value="addIndex&amp;lt;n?" style="rhombus;whiteSpace=wrap;html=1;" vertex="1" parent="WIyWlLk6GJQsqaUBKTNV-1">
          <mxGeometry x="-40" y="440" width="80" height="80" as="geometry" />
        </mxCell>
        <mxCell id="R0n0d4PvLA37cwk8qNkZ-30" value="true" style="text;html=1;align=center;verticalAlign=middle;resizable=0;points=[];autosize=1;strokeColor=none;fillColor=none;" vertex="1" parent="WIyWlLk6GJQsqaUBKTNV-1">
          <mxGeometry y="518" width="40" height="30" as="geometry" />
        </mxCell>
        <mxCell id="R0n0d4PvLA37cwk8qNkZ-33" style="edgeStyle=orthogonalEdgeStyle;rounded=0;orthogonalLoop=1;jettySize=auto;html=1;exitX=0.5;exitY=1;exitDx=0;exitDy=0;" edge="1" parent="WIyWlLk6GJQsqaUBKTNV-1" source="R0n0d4PvLA37cwk8qNkZ-31">
          <mxGeometry relative="1" as="geometry">
            <mxPoint y="760" as="targetPoint" />
          </mxGeometry>
        </mxCell>
        <mxCell id="R0n0d4PvLA37cwk8qNkZ-36" style="edgeStyle=orthogonalEdgeStyle;rounded=0;orthogonalLoop=1;jettySize=auto;html=1;exitX=0;exitY=0.5;exitDx=0;exitDy=0;entryX=1;entryY=0.5;entryDx=0;entryDy=0;" edge="1" parent="WIyWlLk6GJQsqaUBKTNV-1" source="R0n0d4PvLA37cwk8qNkZ-31" target="R0n0d4PvLA37cwk8qNkZ-35">
          <mxGeometry relative="1" as="geometry" />
        </mxCell>
        <mxCell id="R0n0d4PvLA37cwk8qNkZ-31" value="a&amp;lt;addIndex?" style="rhombus;whiteSpace=wrap;html=1;" vertex="1" parent="WIyWlLk6GJQsqaUBKTNV-1">
          <mxGeometry x="-40" y="640" width="80" height="80" as="geometry" />
        </mxCell>
        <mxCell id="R0n0d4PvLA37cwk8qNkZ-55" style="edgeStyle=orthogonalEdgeStyle;rounded=0;orthogonalLoop=1;jettySize=auto;html=1;exitX=1;exitY=0.5;exitDx=0;exitDy=0;" edge="1" parent="WIyWlLk6GJQsqaUBKTNV-1" source="R0n0d4PvLA37cwk8qNkZ-34">
          <mxGeometry relative="1" as="geometry">
            <mxPoint x="110" y="790" as="targetPoint" />
          </mxGeometry>
        </mxCell>
        <mxCell id="R0n0d4PvLA37cwk8qNkZ-34" value="oldArr[a]=newArr[a]" style="rounded=0;whiteSpace=wrap;html=1;" vertex="1" parent="WIyWlLk6GJQsqaUBKTNV-1">
          <mxGeometry x="-60" y="760" width="120" height="60" as="geometry" />
        </mxCell>
        <mxCell id="R0n0d4PvLA37cwk8qNkZ-39" style="edgeStyle=orthogonalEdgeStyle;rounded=0;orthogonalLoop=1;jettySize=auto;html=1;exitX=0;exitY=0.5;exitDx=0;exitDy=0;" edge="1" parent="WIyWlLk6GJQsqaUBKTNV-1" source="R0n0d4PvLA37cwk8qNkZ-35">
          <mxGeometry relative="1" as="geometry">
            <mxPoint x="-290" y="680" as="targetPoint" />
          </mxGeometry>
        </mxCell>
        <mxCell id="R0n0d4PvLA37cwk8qNkZ-35" value="a==adIndex?" style="rhombus;whiteSpace=wrap;html=1;" vertex="1" parent="WIyWlLk6GJQsqaUBKTNV-1">
          <mxGeometry x="-190" y="640" width="80" height="80" as="geometry" />
        </mxCell>
        <mxCell id="R0n0d4PvLA37cwk8qNkZ-37" value="addValue=newArr[a]" style="rounded=0;whiteSpace=wrap;html=1;" vertex="1" parent="WIyWlLk6GJQsqaUBKTNV-1">
          <mxGeometry x="-220" y="760" width="120" height="60" as="geometry" />
        </mxCell>
        <mxCell id="R0n0d4PvLA37cwk8qNkZ-38" style="edgeStyle=orthogonalEdgeStyle;rounded=0;orthogonalLoop=1;jettySize=auto;html=1;exitX=0.5;exitY=1;exitDx=0;exitDy=0;entryX=0.595;entryY=-0.043;entryDx=0;entryDy=0;entryPerimeter=0;" edge="1" parent="WIyWlLk6GJQsqaUBKTNV-1" source="R0n0d4PvLA37cwk8qNkZ-35" target="R0n0d4PvLA37cwk8qNkZ-37">
          <mxGeometry relative="1" as="geometry" />
        </mxCell>
        <mxCell id="R0n0d4PvLA37cwk8qNkZ-40" value="true" style="text;html=1;align=center;verticalAlign=middle;resizable=0;points=[];autosize=1;strokeColor=none;fillColor=none;" vertex="1" parent="WIyWlLk6GJQsqaUBKTNV-1">
          <mxGeometry y="718" width="40" height="30" as="geometry" />
        </mxCell>
        <mxCell id="R0n0d4PvLA37cwk8qNkZ-41" value="false" style="text;html=1;align=center;verticalAlign=middle;resizable=0;points=[];autosize=1;strokeColor=none;fillColor=none;" vertex="1" parent="WIyWlLk6GJQsqaUBKTNV-1">
          <mxGeometry x="-105" y="648" width="50" height="30" as="geometry" />
        </mxCell>
        <mxCell id="R0n0d4PvLA37cwk8qNkZ-42" value="true" style="text;html=1;align=center;verticalAlign=middle;resizable=0;points=[];autosize=1;strokeColor=none;fillColor=none;" vertex="1" parent="WIyWlLk6GJQsqaUBKTNV-1">
          <mxGeometry y="618" width="40" height="30" as="geometry" />
        </mxCell>
        <mxCell id="R0n0d4PvLA37cwk8qNkZ-45" style="edgeStyle=orthogonalEdgeStyle;rounded=0;orthogonalLoop=1;jettySize=auto;html=1;exitX=0.5;exitY=1;exitDx=0;exitDy=0;entryX=0.5;entryY=0;entryDx=0;entryDy=0;" edge="1" parent="WIyWlLk6GJQsqaUBKTNV-1" source="R0n0d4PvLA37cwk8qNkZ-43" target="R0n0d4PvLA37cwk8qNkZ-44">
          <mxGeometry relative="1" as="geometry" />
        </mxCell>
        <mxCell id="R0n0d4PvLA37cwk8qNkZ-59" style="edgeStyle=orthogonalEdgeStyle;rounded=0;orthogonalLoop=1;jettySize=auto;html=1;exitX=0.5;exitY=0;exitDx=0;exitDy=0;" edge="1" parent="WIyWlLk6GJQsqaUBKTNV-1" source="R0n0d4PvLA37cwk8qNkZ-43">
          <mxGeometry relative="1" as="geometry">
            <mxPoint x="-330" y="480" as="targetPoint" />
          </mxGeometry>
        </mxCell>
        <mxCell id="R0n0d4PvLA37cwk8qNkZ-43" value="a&amp;gt;addIndex?" style="rhombus;whiteSpace=wrap;html=1;" vertex="1" parent="WIyWlLk6GJQsqaUBKTNV-1">
          <mxGeometry x="-370" y="640" width="80" height="80" as="geometry" />
        </mxCell>
        <mxCell id="R0n0d4PvLA37cwk8qNkZ-58" style="edgeStyle=orthogonalEdgeStyle;rounded=0;orthogonalLoop=1;jettySize=auto;html=1;exitX=0;exitY=0.5;exitDx=0;exitDy=0;entryX=0.578;entryY=1.117;entryDx=0;entryDy=0;entryPerimeter=0;" edge="1" parent="WIyWlLk6GJQsqaUBKTNV-1" source="R0n0d4PvLA37cwk8qNkZ-44" target="R0n0d4PvLA37cwk8qNkZ-56">
          <mxGeometry relative="1" as="geometry">
            <mxPoint x="180" y="880" as="targetPoint" />
            <Array as="points">
              <mxPoint x="-450" y="790" />
              <mxPoint x="-450" y="880" />
              <mxPoint x="179" y="880" />
            </Array>
          </mxGeometry>
        </mxCell>
        <mxCell id="R0n0d4PvLA37cwk8qNkZ-44" value="oldArr[a-1]=newArr[a]" style="rounded=0;whiteSpace=wrap;html=1;" vertex="1" parent="WIyWlLk6GJQsqaUBKTNV-1">
          <mxGeometry x="-390" y="760" width="120" height="60" as="geometry" />
        </mxCell>
        <mxCell id="R0n0d4PvLA37cwk8qNkZ-51" value="false" style="text;html=1;align=center;verticalAlign=middle;resizable=0;points=[];autosize=1;strokeColor=none;fillColor=none;" vertex="1" parent="WIyWlLk6GJQsqaUBKTNV-1">
          <mxGeometry x="-265" y="648" width="50" height="30" as="geometry" />
        </mxCell>
        <mxCell id="R0n0d4PvLA37cwk8qNkZ-52" value="true" style="text;html=1;align=center;verticalAlign=middle;resizable=0;points=[];autosize=1;strokeColor=none;fillColor=none;" vertex="1" parent="WIyWlLk6GJQsqaUBKTNV-1">
          <mxGeometry x="-150" y="718" width="40" height="30" as="geometry" />
        </mxCell>
        <mxCell id="R0n0d4PvLA37cwk8qNkZ-53" value="true" style="text;html=1;align=center;verticalAlign=middle;resizable=0;points=[];autosize=1;strokeColor=none;fillColor=none;" vertex="1" parent="WIyWlLk6GJQsqaUBKTNV-1">
          <mxGeometry x="-330" y="718" width="40" height="30" as="geometry" />
        </mxCell>
        <mxCell id="R0n0d4PvLA37cwk8qNkZ-57" style="edgeStyle=orthogonalEdgeStyle;rounded=0;orthogonalLoop=1;jettySize=auto;html=1;exitX=0.5;exitY=0;exitDx=0;exitDy=0;entryX=1;entryY=0.5;entryDx=0;entryDy=0;" edge="1" parent="WIyWlLk6GJQsqaUBKTNV-1" source="R0n0d4PvLA37cwk8qNkZ-56" target="R0n0d4PvLA37cwk8qNkZ-23">
          <mxGeometry relative="1" as="geometry">
            <mxPoint x="170" y="580" as="targetPoint" />
            <Array as="points">
              <mxPoint x="170" y="585" />
            </Array>
          </mxGeometry>
        </mxCell>
        <mxCell id="R0n0d4PvLA37cwk8qNkZ-56" value="a++" style="rounded=0;whiteSpace=wrap;html=1;" vertex="1" parent="WIyWlLk6GJQsqaUBKTNV-1">
          <mxGeometry x="110" y="760" width="120" height="60" as="geometry" />
        </mxCell>
        <mxCell id="R0n0d4PvLA37cwk8qNkZ-60" value="false" style="text;html=1;align=center;verticalAlign=middle;resizable=0;points=[];autosize=1;strokeColor=none;fillColor=none;" vertex="1" parent="WIyWlLk6GJQsqaUBKTNV-1">
          <mxGeometry x="-345" y="578" width="50" height="30" as="geometry" />
        </mxCell>
        <mxCell id="R0n0d4PvLA37cwk8qNkZ-61" value="false" style="text;html=1;align=center;verticalAlign=middle;resizable=0;points=[];autosize=1;strokeColor=none;fillColor=none;" vertex="1" parent="WIyWlLk6GJQsqaUBKTNV-1">
          <mxGeometry x="-195" y="448" width="50" height="30" as="geometry" />
        </mxCell>
        <mxCell id="R0n0d4PvLA37cwk8qNkZ-64" style="edgeStyle=orthogonalEdgeStyle;rounded=0;orthogonalLoop=1;jettySize=auto;html=1;exitX=0.5;exitY=1;exitDx=0;exitDy=0;entryX=0.5;entryY=0;entryDx=0;entryDy=0;" edge="1" parent="WIyWlLk6GJQsqaUBKTNV-1" source="R0n0d4PvLA37cwk8qNkZ-62" target="R0n0d4PvLA37cwk8qNkZ-63">
          <mxGeometry relative="1" as="geometry" />
        </mxCell>
        <mxCell id="R0n0d4PvLA37cwk8qNkZ-81" style="edgeStyle=orthogonalEdgeStyle;rounded=0;orthogonalLoop=1;jettySize=auto;html=1;exitX=0;exitY=0.5;exitDx=0;exitDy=0;" edge="1" parent="WIyWlLk6GJQsqaUBKTNV-1" source="R0n0d4PvLA37cwk8qNkZ-62">
          <mxGeometry relative="1" as="geometry">
            <mxPoint x="-1020" y="473" as="targetPoint" />
          </mxGeometry>
        </mxCell>
        <mxCell id="R0n0d4PvLA37cwk8qNkZ-62" value="addIndex&amp;gt;n?" style="rhombus;whiteSpace=wrap;html=1;" vertex="1" parent="WIyWlLk6GJQsqaUBKTNV-1">
          <mxGeometry x="-610" y="433" width="80" height="80" as="geometry" />
        </mxCell>
        <mxCell id="R0n0d4PvLA37cwk8qNkZ-65" style="edgeStyle=orthogonalEdgeStyle;rounded=0;orthogonalLoop=1;jettySize=auto;html=1;exitX=0.5;exitY=1;exitDx=0;exitDy=0;" edge="1" parent="WIyWlLk6GJQsqaUBKTNV-1" source="R0n0d4PvLA37cwk8qNkZ-63">
          <mxGeometry relative="1" as="geometry">
            <mxPoint x="-570" y="670" as="targetPoint" />
          </mxGeometry>
        </mxCell>
        <mxCell id="R0n0d4PvLA37cwk8qNkZ-63" value="a&amp;lt;addIndex?" style="rhombus;whiteSpace=wrap;html=1;" vertex="1" parent="WIyWlLk6GJQsqaUBKTNV-1">
          <mxGeometry x="-650" y="550" width="160" height="80" as="geometry" />
        </mxCell>
        <mxCell id="R0n0d4PvLA37cwk8qNkZ-84" style="edgeStyle=orthogonalEdgeStyle;rounded=0;orthogonalLoop=1;jettySize=auto;html=1;exitX=0.5;exitY=1;exitDx=0;exitDy=0;entryX=0.437;entryY=1.057;entryDx=0;entryDy=0;entryPerimeter=0;" edge="1" parent="WIyWlLk6GJQsqaUBKTNV-1" source="R0n0d4PvLA37cwk8qNkZ-66" target="R0n0d4PvLA37cwk8qNkZ-74">
          <mxGeometry relative="1" as="geometry">
            <mxPoint x="-570" y="870" as="targetPoint" />
            <Array as="points">
              <mxPoint x="-570" y="870" />
              <mxPoint x="-908" y="870" />
            </Array>
          </mxGeometry>
        </mxCell>
        <mxCell id="R0n0d4PvLA37cwk8qNkZ-66" value="oldArr[a]=newArr[a]" style="rounded=0;whiteSpace=wrap;html=1;" vertex="1" parent="WIyWlLk6GJQsqaUBKTNV-1">
          <mxGeometry x="-630" y="760" width="120" height="60" as="geometry" />
        </mxCell>
        <mxCell id="R0n0d4PvLA37cwk8qNkZ-68" style="edgeStyle=orthogonalEdgeStyle;rounded=0;orthogonalLoop=1;jettySize=auto;html=1;exitX=0.5;exitY=1;exitDx=0;exitDy=0;entryX=0.5;entryY=0;entryDx=0;entryDy=0;" edge="1" parent="WIyWlLk6GJQsqaUBKTNV-1" source="R0n0d4PvLA37cwk8qNkZ-67" target="R0n0d4PvLA37cwk8qNkZ-66">
          <mxGeometry relative="1" as="geometry" />
        </mxCell>
        <mxCell id="R0n0d4PvLA37cwk8qNkZ-71" style="edgeStyle=orthogonalEdgeStyle;rounded=0;orthogonalLoop=1;jettySize=auto;html=1;exitX=0;exitY=0.5;exitDx=0;exitDy=0;" edge="1" parent="WIyWlLk6GJQsqaUBKTNV-1" source="R0n0d4PvLA37cwk8qNkZ-67" target="R0n0d4PvLA37cwk8qNkZ-70">
          <mxGeometry relative="1" as="geometry" />
        </mxCell>
        <mxCell id="R0n0d4PvLA37cwk8qNkZ-67" value="a&amp;lt;n?" style="rhombus;whiteSpace=wrap;html=1;" vertex="1" parent="WIyWlLk6GJQsqaUBKTNV-1">
          <mxGeometry x="-610" y="668" width="80" height="80" as="geometry" />
        </mxCell>
        <mxCell id="R0n0d4PvLA37cwk8qNkZ-72" style="edgeStyle=orthogonalEdgeStyle;rounded=0;orthogonalLoop=1;jettySize=auto;html=1;exitX=0.5;exitY=1;exitDx=0;exitDy=0;" edge="1" parent="WIyWlLk6GJQsqaUBKTNV-1" source="R0n0d4PvLA37cwk8qNkZ-70">
          <mxGeometry relative="1" as="geometry">
            <mxPoint x="-740" y="770" as="targetPoint" />
          </mxGeometry>
        </mxCell>
        <mxCell id="R0n0d4PvLA37cwk8qNkZ-87" style="edgeStyle=orthogonalEdgeStyle;rounded=0;orthogonalLoop=1;jettySize=auto;html=1;exitX=0.5;exitY=0;exitDx=0;exitDy=0;" edge="1" parent="WIyWlLk6GJQsqaUBKTNV-1" source="R0n0d4PvLA37cwk8qNkZ-70">
          <mxGeometry relative="1" as="geometry">
            <mxPoint x="-740" y="470" as="targetPoint" />
          </mxGeometry>
        </mxCell>
        <mxCell id="R0n0d4PvLA37cwk8qNkZ-70" value="a&amp;gt;n?" style="rhombus;whiteSpace=wrap;html=1;" vertex="1" parent="WIyWlLk6GJQsqaUBKTNV-1">
          <mxGeometry x="-780" y="668" width="80" height="80" as="geometry" />
        </mxCell>
        <mxCell id="R0n0d4PvLA37cwk8qNkZ-83" style="edgeStyle=orthogonalEdgeStyle;rounded=0;orthogonalLoop=1;jettySize=auto;html=1;exitX=0;exitY=0.5;exitDx=0;exitDy=0;entryX=1;entryY=0.5;entryDx=0;entryDy=0;" edge="1" parent="WIyWlLk6GJQsqaUBKTNV-1" source="R0n0d4PvLA37cwk8qNkZ-73" target="R0n0d4PvLA37cwk8qNkZ-74">
          <mxGeometry relative="1" as="geometry" />
        </mxCell>
        <mxCell id="R0n0d4PvLA37cwk8qNkZ-73" value="newNumber[a]=0" style="rounded=0;whiteSpace=wrap;html=1;" vertex="1" parent="WIyWlLk6GJQsqaUBKTNV-1">
          <mxGeometry x="-800" y="770" width="120" height="60" as="geometry" />
        </mxCell>
        <mxCell id="R0n0d4PvLA37cwk8qNkZ-85" style="edgeStyle=orthogonalEdgeStyle;rounded=0;orthogonalLoop=1;jettySize=auto;html=1;exitX=0.5;exitY=0;exitDx=0;exitDy=0;entryX=0;entryY=0.5;entryDx=0;entryDy=0;" edge="1" parent="WIyWlLk6GJQsqaUBKTNV-1" source="R0n0d4PvLA37cwk8qNkZ-74" target="R0n0d4PvLA37cwk8qNkZ-63">
          <mxGeometry relative="1" as="geometry">
            <mxPoint x="-900" y="580" as="targetPoint" />
            <Array as="points">
              <mxPoint x="-900" y="590" />
            </Array>
          </mxGeometry>
        </mxCell>
        <mxCell id="R0n0d4PvLA37cwk8qNkZ-74" value="a++" style="rounded=0;whiteSpace=wrap;html=1;" vertex="1" parent="WIyWlLk6GJQsqaUBKTNV-1">
          <mxGeometry x="-960" y="770" width="120" height="60" as="geometry" />
        </mxCell>
        <mxCell id="R0n0d4PvLA37cwk8qNkZ-78" value="true" style="text;html=1;align=center;verticalAlign=middle;resizable=0;points=[];autosize=1;strokeColor=none;fillColor=none;" vertex="1" parent="WIyWlLk6GJQsqaUBKTNV-1">
          <mxGeometry x="-580" y="628" width="40" height="30" as="geometry" />
        </mxCell>
        <mxCell id="R0n0d4PvLA37cwk8qNkZ-79" value="true" style="text;html=1;align=center;verticalAlign=middle;resizable=0;points=[];autosize=1;strokeColor=none;fillColor=none;" vertex="1" parent="WIyWlLk6GJQsqaUBKTNV-1">
          <mxGeometry x="-570" y="728" width="40" height="30" as="geometry" />
        </mxCell>
        <mxCell id="R0n0d4PvLA37cwk8qNkZ-80" value="false" style="text;html=1;align=center;verticalAlign=middle;resizable=0;points=[];autosize=1;strokeColor=none;fillColor=none;" vertex="1" parent="WIyWlLk6GJQsqaUBKTNV-1">
          <mxGeometry x="-685" y="668" width="50" height="30" as="geometry" />
        </mxCell>
        <mxCell id="R0n0d4PvLA37cwk8qNkZ-89" style="edgeStyle=orthogonalEdgeStyle;rounded=0;orthogonalLoop=1;jettySize=auto;html=1;exitX=0;exitY=0.5;exitDx=0;exitDy=0;" edge="1" parent="WIyWlLk6GJQsqaUBKTNV-1" source="R0n0d4PvLA37cwk8qNkZ-82">
          <mxGeometry relative="1" as="geometry">
            <mxPoint x="-1280" y="478" as="targetPoint" />
          </mxGeometry>
        </mxCell>
        <mxCell id="R0n0d4PvLA37cwk8qNkZ-82" value="newArr[addIndex]=addValue" style="rounded=0;whiteSpace=wrap;html=1;" vertex="1" parent="WIyWlLk6GJQsqaUBKTNV-1">
          <mxGeometry x="-1140" y="448" width="120" height="60" as="geometry" />
        </mxCell>
        <mxCell id="R0n0d4PvLA37cwk8qNkZ-86" value="true" style="text;html=1;align=center;verticalAlign=middle;resizable=0;points=[];autosize=1;strokeColor=none;fillColor=none;" vertex="1" parent="WIyWlLk6GJQsqaUBKTNV-1">
          <mxGeometry x="-750" y="748" width="40" height="30" as="geometry" />
        </mxCell>
        <mxCell id="R0n0d4PvLA37cwk8qNkZ-88" value="false" style="text;html=1;align=center;verticalAlign=middle;resizable=0;points=[];autosize=1;strokeColor=none;fillColor=none;" vertex="1" parent="WIyWlLk6GJQsqaUBKTNV-1">
          <mxGeometry x="-755" y="538" width="50" height="30" as="geometry" />
        </mxCell>
        <mxCell id="R0n0d4PvLA37cwk8qNkZ-92" style="edgeStyle=orthogonalEdgeStyle;rounded=0;orthogonalLoop=1;jettySize=auto;html=1;exitX=0;exitY=0.5;exitDx=0;exitDy=0;" edge="1" parent="WIyWlLk6GJQsqaUBKTNV-1" source="R0n0d4PvLA37cwk8qNkZ-90" target="R0n0d4PvLA37cwk8qNkZ-91">
          <mxGeometry relative="1" as="geometry" />
        </mxCell>
        <mxCell id="R0n0d4PvLA37cwk8qNkZ-97" style="edgeStyle=orthogonalEdgeStyle;rounded=0;orthogonalLoop=1;jettySize=auto;html=1;exitX=0.5;exitY=0;exitDx=0;exitDy=0;" edge="1" parent="WIyWlLk6GJQsqaUBKTNV-1" source="R0n0d4PvLA37cwk8qNkZ-90">
          <mxGeometry relative="1" as="geometry">
            <mxPoint x="-1320" y="320" as="targetPoint" />
          </mxGeometry>
        </mxCell>
        <mxCell id="R0n0d4PvLA37cwk8qNkZ-90" value="a&amp;lt;=addIndex" style="rhombus;whiteSpace=wrap;html=1;" vertex="1" parent="WIyWlLk6GJQsqaUBKTNV-1">
          <mxGeometry x="-1360" y="438" width="80" height="80" as="geometry" />
        </mxCell>
        <mxCell id="R0n0d4PvLA37cwk8qNkZ-94" style="edgeStyle=orthogonalEdgeStyle;rounded=0;orthogonalLoop=1;jettySize=auto;html=1;exitX=0.5;exitY=1;exitDx=0;exitDy=0;" edge="1" parent="WIyWlLk6GJQsqaUBKTNV-1" source="R0n0d4PvLA37cwk8qNkZ-91">
          <mxGeometry relative="1" as="geometry">
            <mxPoint x="-1490" y="550" as="targetPoint" />
          </mxGeometry>
        </mxCell>
        <mxCell id="R0n0d4PvLA37cwk8qNkZ-91" value="newNumber[a]" style="shape=parallelogram;perimeter=parallelogramPerimeter;whiteSpace=wrap;html=1;fixedSize=1;" vertex="1" parent="WIyWlLk6GJQsqaUBKTNV-1">
          <mxGeometry x="-1550" y="448" width="120" height="60" as="geometry" />
        </mxCell>
        <mxCell id="R0n0d4PvLA37cwk8qNkZ-93" value="true" style="text;html=1;align=center;verticalAlign=middle;resizable=0;points=[];autosize=1;strokeColor=none;fillColor=none;" vertex="1" parent="WIyWlLk6GJQsqaUBKTNV-1">
          <mxGeometry x="-1410" y="448" width="40" height="30" as="geometry" />
        </mxCell>
        <mxCell id="R0n0d4PvLA37cwk8qNkZ-96" style="edgeStyle=orthogonalEdgeStyle;rounded=0;orthogonalLoop=1;jettySize=auto;html=1;exitX=1;exitY=0.5;exitDx=0;exitDy=0;entryX=0.405;entryY=0.932;entryDx=0;entryDy=0;entryPerimeter=0;" edge="1" parent="WIyWlLk6GJQsqaUBKTNV-1" source="R0n0d4PvLA37cwk8qNkZ-95" target="R0n0d4PvLA37cwk8qNkZ-90">
          <mxGeometry relative="1" as="geometry">
            <mxPoint x="-1320" y="580" as="targetPoint" />
            <Array as="points">
              <mxPoint x="-1320" y="580" />
              <mxPoint x="-1320" y="513" />
            </Array>
          </mxGeometry>
        </mxCell>
        <mxCell id="R0n0d4PvLA37cwk8qNkZ-95" value="a++" style="rounded=0;whiteSpace=wrap;html=1;" vertex="1" parent="WIyWlLk6GJQsqaUBKTNV-1">
          <mxGeometry x="-1560" y="550" width="120" height="60" as="geometry" />
        </mxCell>
        <mxCell id="R0n0d4PvLA37cwk8qNkZ-98" value="false" style="text;html=1;align=center;verticalAlign=middle;resizable=0;points=[];autosize=1;strokeColor=none;fillColor=none;" vertex="1" parent="WIyWlLk6GJQsqaUBKTNV-1">
          <mxGeometry x="-1335" y="388" width="50" height="30" as="geometry" />
        </mxCell>
        <mxCell id="R0n0d4PvLA37cwk8qNkZ-99" value="end" style="ellipse;whiteSpace=wrap;html=1;" vertex="1" parent="WIyWlLk6GJQsqaUBKTNV-1">
          <mxGeometry x="-1380" y="240" width="120" height="80" as="geometry" />
        </mxCell>
      </root>
    </mxGraphModel>
  </diagram>
</mxfile>
